<svg width="40" height="40" viewBox="0 0 40 40" fill="none" xmlns="http://www.w3.org/2000/svg">
<path d="M34.0599 40C33.8101 40 33.6074 39.797 33.6074 39.5469C33.6074 39.2968 33.8101 39.0938 34.0599 39.0938C35.0943 39.0938 35.9359 38.251 35.9359 37.2151V8.739C35.9359 7.70316 35.0943 6.86035 34.0599 6.86035H30.9585C30.7088 6.86035 30.5061 6.65735 30.5061 6.40723C30.5061 6.1571 30.7088 5.9541 30.9585 5.9541H34.0599C35.5929 5.9541 36.8409 7.20291 36.8409 8.739V37.2151C36.8409 38.7512 35.5929 40 34.0599 40ZM12.7278 40C11.1947 40 9.94678 38.7512 9.94678 37.2151V8.739C9.94678 7.20382 11.1938 5.9541 12.7278 5.9541H15.8291C16.0789 5.9541 16.2816 6.1571 16.2816 6.40723C16.2816 6.65735 16.0789 6.86035 15.8291 6.86035H12.7278C11.6934 6.86035 10.8518 7.70316 10.8518 8.739V37.2151C10.8518 38.251 11.6934 39.0938 12.7278 39.0938C12.9775 39.0938 13.1803 39.2968 13.1803 39.5469C13.1803 39.797 12.9775 40 12.7278 40Z" fill="#0C5ADB"/>
<path d="M27.5973 11.0028H19.19C17.0869 11.0028 15.3765 9.28995 15.3765 7.18383V5.95858C15.3765 4.52852 16.5385 3.36581 17.9656 3.36581H19.6072C19.8317 1.47265 21.4443 0 23.3937 0C25.343 0 26.9557 1.47265 27.1801 3.36581H28.8208C30.2489 3.36581 31.4099 4.52943 31.4099 5.95858V7.18474C31.4109 9.28995 29.7004 11.0028 27.5973 11.0028ZM17.9656 4.27206C17.0371 4.27206 16.2814 5.02877 16.2814 5.95858V7.18474C16.2814 8.79061 17.5864 10.0974 19.19 10.0974H27.5973C29.2009 10.0974 30.5059 8.79061 30.5059 7.18474V5.95858C30.5059 5.02877 29.7502 4.27206 28.8217 4.27206H26.7547C26.505 4.27206 26.3023 4.06906 26.3023 3.81893C26.3023 2.21306 24.9973 0.906249 23.3937 0.906249C21.79 0.906249 20.4851 2.21306 20.4851 3.81893C20.4851 4.06906 20.2823 4.27206 20.0326 4.27206H17.9656Z" fill="#0C5ADB"/>
<path d="M23.3938 6.11937C22.1268 6.11937 21.0951 5.08715 21.0951 3.8175C21.0951 2.54784 22.1259 1.51562 23.3938 1.51562C24.6616 1.51562 25.6924 2.54784 25.6924 3.8175C25.6924 5.08715 24.6607 6.11937 23.3938 6.11937ZM23.3938 2.42278C22.6254 2.42278 22.0001 3.049 22.0001 3.8184C22.0001 4.58781 22.6254 5.21403 23.3938 5.21403C24.1621 5.21403 24.7874 4.58781 24.7874 3.8184C24.7874 3.049 24.1621 2.42278 23.3938 2.42278ZM32.3793 37.7184H18.0879C17.9666 37.7184 17.8499 37.6695 17.7648 37.5825C16.2417 36.0256 14.077 33.8007 12.5286 32.2085C12.4462 32.1238 12.4001 32.0103 12.4001 31.8922V10.3978C12.4001 9.28852 13.3014 8.3868 14.4082 8.3868H16.2661C16.5159 8.3868 16.7186 8.5898 16.7186 8.83993C16.7186 9.09005 16.5159 9.29305 16.2661 9.29305H14.4082C13.8001 9.29305 13.3051 9.78877 13.3051 10.3978V31.7073C14.7974 33.2416 16.8073 35.3078 18.2779 36.8113H32.3784C32.9865 36.8113 33.4815 36.3156 33.4815 35.7066V10.3978C33.4815 9.78877 32.9865 9.29305 32.3784 9.29305H30.5204C30.2707 9.29305 30.068 9.09005 30.068 8.83993C30.068 8.5898 30.2707 8.3868 30.5204 8.3868H32.3784C33.4861 8.3868 34.3865 9.28943 34.3865 10.3978V35.7066C34.3874 36.8158 33.4861 37.7184 32.3793 37.7184Z" fill="#0C5ADB"/>
<path d="M18.0879 37.7184C17.8381 37.7184 17.6354 37.5154 17.6354 37.2653V33.4509C17.6354 32.8419 17.1404 32.3462 16.5322 32.3462H12.8526C12.6028 32.3462 12.4001 32.1432 12.4001 31.893C12.4001 31.6429 12.6028 31.4399 12.8526 31.4399H16.5322C17.6399 31.4399 18.5404 32.3425 18.5404 33.4509V37.2653C18.5404 37.5154 18.3376 37.7184 18.0879 37.7184ZM23.9033 22.7517H22.4779C22.096 22.7517 21.782 22.4653 21.7141 22.0548L21.5829 21.2609C21.5503 21.2482 21.5177 21.2346 21.4861 21.2201L20.8327 21.6887C20.4951 21.9306 20.0707 21.9107 19.801 21.6406L18.7928 20.6311C18.5232 20.361 18.5033 19.936 18.7449 19.598L19.2128 18.9436C19.1992 18.911 19.1856 18.8793 19.1729 18.8467L18.3802 18.7153C17.9702 18.6473 17.6842 18.3328 17.6842 17.9504V16.5231C17.6842 16.1406 17.9702 15.8261 18.3802 15.7582L19.1729 15.6268C19.1856 15.5942 19.1992 15.5615 19.2137 15.5298L18.7458 14.8755C18.5042 14.5375 18.5241 14.1124 18.7938 13.8424L19.8019 12.8328C20.0716 12.5627 20.496 12.5428 20.8336 12.7848L21.487 13.2533C21.5195 13.2397 21.5512 13.2261 21.5838 13.2134L21.715 12.4196C21.7829 12.009 22.0969 11.7227 22.4788 11.7227H23.9042C24.2861 11.7227 24.6001 12.009 24.668 12.4196L24.7992 13.2134C24.8318 13.2261 24.8643 13.2397 24.896 13.2533L25.5494 12.7848C25.887 12.5428 26.3114 12.5627 26.5811 12.8328L27.5892 13.8424C27.8589 14.1124 27.8788 14.5375 27.6372 14.8764L27.1693 15.5307C27.1829 15.5633 27.1965 15.5951 27.2091 15.6277L28.0019 15.7591C28.4118 15.8271 28.6978 16.1415 28.6978 16.524V17.9513C28.6978 18.3337 28.4118 18.6482 28.0019 18.7162L27.2091 18.8476C27.1965 18.8802 27.1829 18.9128 27.1684 18.9446L27.6363 19.5989C27.8779 19.9369 27.858 20.3619 27.5883 20.632L26.5802 21.6415C26.3096 21.9125 25.8852 21.9315 25.5476 21.6896L24.8942 21.221C24.8616 21.2346 24.8299 21.2482 24.7974 21.2618L24.6662 22.0557C24.5992 22.4653 24.2852 22.7517 23.9033 22.7517ZM22.5974 21.8455H23.7838L23.9485 20.8513C23.9757 20.6845 24.0942 20.5468 24.2544 20.4942C24.42 20.4399 24.5829 20.3728 24.7385 20.293C24.8888 20.216 25.0698 20.2305 25.2073 20.3284L26.0254 20.9147L26.8643 20.0746L26.2788 19.2545C26.2304 19.187 26.2016 19.1075 26.1953 19.0247C26.1891 18.9419 26.2058 18.859 26.2435 18.7851C26.3232 18.6283 26.3901 18.4661 26.4444 18.3002C26.4969 18.1398 26.6345 18.0211 26.801 17.9939L27.7938 17.829V16.6427L26.801 16.4777C26.7193 16.4642 26.6428 16.4285 26.5799 16.3745C26.5171 16.3205 26.4702 16.2503 26.4444 16.1714C26.3901 16.0056 26.3223 15.8425 26.2435 15.6866C26.1666 15.5361 26.1811 15.3549 26.2788 15.2172L26.8643 14.3979L26.0254 13.5578L25.2073 14.1442C25.1399 14.1924 25.0605 14.2212 24.9779 14.2274C24.8952 14.2336 24.8124 14.2171 24.7385 14.1795C24.5829 14.0997 24.42 14.0327 24.2544 13.9783C24.1757 13.9525 24.1055 13.9056 24.0516 13.8426C23.9976 13.7797 23.962 13.7031 23.9485 13.6212L23.7838 12.6271H22.5974L22.4327 13.6212C22.4192 13.7031 22.3835 13.7797 22.3296 13.8426C22.2757 13.9056 22.2055 13.9525 22.1268 13.9783C21.9612 14.0327 21.7983 14.0997 21.6426 14.1795C21.4924 14.2565 21.3114 14.242 21.1738 14.1442L20.3557 13.5578L19.5168 14.3979L20.1023 15.2181C20.1507 15.2855 20.1796 15.365 20.1858 15.4478C20.1921 15.5306 20.1754 15.6135 20.1376 15.6875C20.0585 15.8438 19.9914 16.0059 19.9367 16.1723C19.911 16.2512 19.8641 16.3214 19.8012 16.3754C19.7384 16.4294 19.6619 16.4651 19.5802 16.4786L18.5874 16.6436V17.8317L19.5802 17.9966C19.7467 18.0238 19.8842 18.1425 19.9367 18.3029C19.991 18.4688 20.058 18.6319 20.1376 18.7878C20.2137 18.9382 20.2001 19.1195 20.1023 19.2572L19.5168 20.0765L20.3557 20.9165L21.1747 20.3302C21.2421 20.2818 21.3215 20.2528 21.4042 20.2466C21.4869 20.2404 21.5697 20.2571 21.6435 20.2949C21.7992 20.3746 21.9621 20.4417 22.1277 20.496C22.2879 20.5486 22.4064 20.6864 22.4336 20.8531L22.5974 21.8455Z" fill="#0C5ADB"/>
<path d="M23.191 19.5649C21.9086 19.5649 20.8661 18.52 20.8661 17.2368C20.8661 15.9535 21.9095 14.9086 23.191 14.9086C24.4724 14.9086 25.5159 15.9535 25.5159 17.2368C25.5159 18.52 24.4724 19.5649 23.191 19.5649ZM23.191 15.8149C22.4082 15.8149 21.7711 16.4529 21.7711 17.2368C21.7711 18.0207 22.4082 18.6587 23.191 18.6587C23.9738 18.6587 24.6109 18.0207 24.6109 17.2368C24.6109 16.4529 23.9738 15.8149 23.191 15.8149ZM7.60727 33.851H3.61179C3.36202 33.851 3.1593 33.648 3.1593 33.3979V11.6162C3.1593 11.3661 3.36202 11.1631 3.61179 11.1631H7.60727C7.85704 11.1631 8.05975 11.3661 8.05975 11.6162V33.3979C8.05975 33.648 7.85704 33.851 7.60727 33.851ZM4.06428 32.9448H7.15478V12.0693H4.06428V32.9448Z" fill="#0C5ADB"/>
<path d="M7.60727 12.0695C7.35749 12.0695 7.15478 11.8665 7.15478 11.6164V8.875C7.15478 8.62487 7.35749 8.42188 7.60727 8.42188C7.85704 8.42188 8.05975 8.62487 8.05975 8.875V11.6164C8.05975 11.8674 7.85704 12.0695 7.60727 12.0695ZM3.61179 12.0695C3.36202 12.0695 3.1593 11.8665 3.1593 11.6164V8.875C3.1593 8.62487 3.36202 8.42188 3.61179 8.42188C3.86156 8.42188 4.06428 8.62487 4.06428 8.875V11.6164C4.06428 11.8674 3.86156 12.0695 3.61179 12.0695Z" fill="#0C5ADB"/>
<path d="M7.60727 9.32894H3.61179C3.36202 9.32894 3.1593 9.12594 3.1593 8.87581V6.43075C3.1593 5.07773 4.25794 3.97754 5.60908 3.97754C6.96021 3.97754 8.05885 5.07863 8.05885 6.43075V8.87581C8.05975 9.12594 7.85704 9.32894 7.60727 9.32894ZM4.06428 8.42269H7.15478V6.43075C7.15478 5.57797 6.46156 4.88379 5.60998 4.88379C4.7584 4.88379 4.06518 5.57797 4.06518 6.43075V8.42269H4.06428ZM7.60727 35.9255H3.61179C3.36202 35.9255 3.1593 35.7225 3.1593 35.4724V33.398C3.1593 33.1479 3.36202 32.9449 3.61179 32.9449H7.60727C7.85704 32.9449 8.05975 33.1479 8.05975 33.398V35.4724C8.05975 35.7225 7.85704 35.9255 7.60727 35.9255ZM4.06428 35.0193H7.15478V33.8511H4.06428V35.0193Z" fill="#0C5ADB"/>
<path d="M5.60992 40.0004C5.43707 40.0004 5.27961 39.9025 5.20359 39.7466L3.2063 35.6721C3.15349 35.5643 3.14555 35.4399 3.18423 35.3262C3.22292 35.2126 3.30507 35.1189 3.41264 35.0658C3.46599 35.0396 3.52398 35.0242 3.5833 35.0204C3.64261 35.0167 3.70208 35.0247 3.75831 35.0439C3.81454 35.0632 3.86642 35.0934 3.911 35.1328C3.95557 35.1721 3.99195 35.2199 4.01807 35.2734L5.60902 38.5196L7.19997 35.2734C7.25288 35.1656 7.34634 35.0832 7.45984 35.0443C7.57334 35.0054 7.69761 35.0131 7.8054 35.0658C7.91306 35.1188 7.99535 35.2124 8.0342 35.3261C8.07305 35.4397 8.06529 35.5642 8.01264 35.6721L6.01535 39.7466C5.97831 39.8227 5.92066 39.8868 5.84898 39.9317C5.77729 39.9766 5.69446 40.0004 5.60992 40.0004Z" fill="#0C5ADB"/>
<path d="M6.60452 37.9701C6.55475 37.9701 6.50498 37.9619 6.45611 37.9447C5.90801 37.7526 5.311 37.7526 4.7629 37.9447C4.5267 38.0271 4.26878 37.9021 4.18643 37.6656C4.10407 37.429 4.22896 37.1707 4.46516 37.0883C5.20579 36.8291 6.01231 36.8291 6.75294 37.0883C6.98914 37.1707 7.11403 37.429 7.03167 37.6656C7.00104 37.7546 6.94341 37.8317 6.86682 37.8863C6.79024 37.9409 6.69853 37.9702 6.60452 37.9701ZM5.60995 28.3239C5.36018 28.3239 5.15747 28.1209 5.15747 27.8708V17.1436C5.15747 16.8934 5.36018 16.6904 5.60995 16.6904C5.85973 16.6904 6.06244 16.8934 6.06244 17.1436V27.8708C6.06244 28.1218 5.85973 28.3239 5.60995 28.3239ZM29.4679 25.5109H16.914C16.6643 25.5109 16.4615 25.3079 16.4615 25.0578C16.4615 24.8077 16.6643 24.6047 16.914 24.6047H29.4679C29.7176 24.6047 29.9204 24.8077 29.9204 25.0578C29.9204 25.3079 29.7176 25.5109 29.4679 25.5109ZM29.4679 28.1871H16.914C16.6643 28.1871 16.4615 27.9841 16.4615 27.734C16.4615 27.4838 16.6643 27.2808 16.914 27.2808H29.4679C29.7176 27.2808 29.9204 27.4838 29.9204 27.734C29.9204 27.9841 29.7176 28.1871 29.4679 28.1871ZM39.5475 40H0.452489C0.202715 40 0 39.7971 0 39.5469C0 39.2968 0.202715 39.0938 0.452489 39.0938H39.5475C39.7973 39.0938 40 39.2968 40 39.5469C40 39.7971 39.7973 40 39.5475 40Z" fill="#0C5ADB"/>
</svg>
