<svg width="16" height="18" viewBox="0 0 16 18" fill="none" xmlns="http://www.w3.org/2000/svg">
<path d="M4.71785 3.7671C4.38144 3.7671 4.10246 3.48248 4.10246 3.13925V0.627851C4.10246 0.284626 4.38144 0 4.71785 0C5.05426 0 5.33323 0.284626 5.33323 0.627851V3.13925C5.33323 3.48248 5.05426 3.7671 4.71785 3.7671ZM11.2819 3.7671C10.9455 3.7671 10.6666 3.48248 10.6666 3.13925V0.627851C10.6666 0.284626 10.9455 0 11.2819 0C11.6184 0 11.8973 0.284626 11.8973 0.627851V3.13925C11.8973 3.48248 11.6184 3.7671 11.2819 3.7671ZM5.1281 11.092C5.02144 11.092 4.91477 11.0669 4.81631 11.0251C4.70964 10.9832 4.62759 10.9246 4.54554 10.8493C4.39785 10.6902 4.30759 10.4809 4.30759 10.2549C4.30759 10.1461 4.33221 10.0372 4.37323 9.93679C4.41426 9.83633 4.47169 9.74424 4.54554 9.66053C4.62759 9.58519 4.70964 9.52659 4.81631 9.48473C5.11169 9.35916 5.48093 9.42613 5.71067 9.66053C5.85836 9.81959 5.94862 10.0372 5.94862 10.2549C5.94862 10.3051 5.94041 10.3637 5.93221 10.4223C5.924 10.4726 5.90759 10.5228 5.88298 10.573C5.86657 10.6232 5.84195 10.6735 5.80913 10.7237C5.78451 10.7655 5.74349 10.8074 5.71067 10.8493C5.55477 10.9999 5.34144 11.092 5.1281 11.092ZM7.9999 11.092C7.89323 11.092 7.78657 11.0669 7.6881 11.0251C7.58144 10.9832 7.49939 10.9246 7.41734 10.8493C7.26964 10.6902 7.17939 10.4809 7.17939 10.2549C7.17939 10.1461 7.204 10.0372 7.24503 9.93679C7.28605 9.83633 7.34349 9.74424 7.41734 9.66053C7.49939 9.58519 7.58144 9.52659 7.6881 9.48473C7.98349 9.35079 8.35272 9.42613 8.58246 9.66053C8.73016 9.81959 8.82041 10.0372 8.82041 10.2549C8.82041 10.3051 8.81221 10.3637 8.804 10.4223C8.7958 10.4726 8.77939 10.5228 8.75477 10.573C8.73836 10.6232 8.71375 10.6735 8.68093 10.7237C8.65631 10.7655 8.61528 10.8074 8.58246 10.8493C8.42657 10.9999 8.21323 11.092 7.9999 11.092ZM10.8717 11.092C10.765 11.092 10.6584 11.0669 10.5599 11.0251C10.4532 10.9832 10.3712 10.9246 10.2891 10.8493L10.1907 10.7237C10.1596 10.677 10.1348 10.6264 10.1168 10.573C10.0931 10.5256 10.0765 10.4748 10.0676 10.4223C10.0594 10.3637 10.0512 10.3051 10.0512 10.2549C10.0512 10.0372 10.1414 9.81959 10.2891 9.66053C10.3712 9.58519 10.4532 9.52659 10.5599 9.48473C10.8635 9.35079 11.2245 9.42613 11.4543 9.66053C11.6019 9.81959 11.6922 10.0372 11.6922 10.2549C11.6922 10.3051 11.684 10.3637 11.6758 10.4223C11.6676 10.4726 11.6512 10.5228 11.6266 10.573C11.6102 10.6232 11.5855 10.6735 11.5527 10.7237C11.5281 10.7655 11.4871 10.8074 11.4543 10.8493C11.2984 10.9999 11.085 11.092 10.8717 11.092ZM5.1281 14.022C5.02144 14.022 4.91477 13.9969 4.81631 13.955C4.71785 13.9132 4.62759 13.8546 4.54554 13.7792C4.39785 13.6202 4.30759 13.4025 4.30759 13.1849C4.30759 13.076 4.33221 12.9672 4.37323 12.8668C4.41426 12.7579 4.47169 12.6658 4.54554 12.5905C4.84913 12.2808 5.40708 12.2808 5.71067 12.5905C5.85836 12.7496 5.94862 12.9672 5.94862 13.1849C5.94862 13.4025 5.85836 13.6202 5.71067 13.7792C5.55477 13.9299 5.34144 14.022 5.1281 14.022ZM7.9999 14.022C7.78657 14.022 7.57323 13.9299 7.41734 13.7792C7.26964 13.6202 7.17939 13.4025 7.17939 13.1849C7.17939 13.076 7.204 12.9672 7.24503 12.8668C7.28605 12.7579 7.34349 12.6658 7.41734 12.5905C7.72092 12.2808 8.27887 12.2808 8.58246 12.5905C8.65631 12.6658 8.71375 12.7579 8.75477 12.8668C8.7958 12.9672 8.82041 13.076 8.82041 13.1849C8.82041 13.4025 8.73016 13.6202 8.58246 13.7792C8.42657 13.9299 8.21323 14.022 7.9999 14.022ZM10.8717 14.022C10.6584 14.022 10.445 13.9299 10.2891 13.7792C10.2132 13.7006 10.1545 13.6064 10.1168 13.503C10.0758 13.4025 10.0512 13.2937 10.0512 13.1849C10.0512 13.076 10.0758 12.9672 10.1168 12.8668C10.1578 12.7579 10.2153 12.6658 10.2891 12.5905C10.4778 12.398 10.765 12.3059 11.0276 12.3645C11.085 12.3728 11.1343 12.3896 11.1835 12.4147C11.2327 12.4314 11.2819 12.4566 11.3312 12.49C11.3722 12.5152 11.4132 12.557 11.4543 12.5905C11.6019 12.7496 11.6922 12.9672 11.6922 13.1849C11.6922 13.4025 11.6019 13.6202 11.4543 13.7792C11.2984 13.9299 11.085 14.022 10.8717 14.022ZM14.9743 7.19098H1.02554C0.689131 7.19098 0.410156 6.90636 0.410156 6.56313C0.410156 6.21991 0.689131 5.93528 1.02554 5.93528H14.9743C15.3107 5.93528 15.5896 6.21991 15.5896 6.56313C15.5896 6.90636 15.3107 7.19098 14.9743 7.19098Z" fill="#0C5ADB"/>
<path d="M11.2821 18.0005H4.71795C1.72308 18.0005 0 16.2425 0 13.187V6.07134C0 3.01579 1.72308 1.25781 4.71795 1.25781H11.2821C14.2769 1.25781 16 3.01579 16 6.07134V13.187C16 16.2425 14.2769 18.0005 11.2821 18.0005ZM4.71795 2.51351C2.37128 2.51351 1.23077 3.67713 1.23077 6.07134V13.187C1.23077 15.5812 2.37128 16.7448 4.71795 16.7448H11.2821C13.6287 16.7448 14.7692 15.5812 14.7692 13.187V6.07134C14.7692 3.67713 13.6287 2.51351 11.2821 2.51351H4.71795Z" fill="#0C5ADB"/>
</svg>
