<svg width="12" height="12" viewBox="0 0 12 12" fill="none" xmlns="http://www.w3.org/2000/svg">
<path d="M6.00638 12.0001C5.83609 12.0011 5.66936 11.9514 5.52745 11.8573C5.38554 11.7632 5.27488 11.629 5.20958 11.4719C5.14428 11.3147 5.1273 11.1416 5.16079 10.9747C5.19429 10.8078 5.27675 10.6547 5.39766 10.5349L9.94162 6.0019L5.39766 1.46895C5.2572 1.30503 5.18381 1.09416 5.19214 0.878506C5.20048 0.662847 5.28993 0.458273 5.44262 0.305665C5.59531 0.153058 5.79999 0.0636565 6.01576 0.0553266C6.23154 0.0469966 6.44251 0.120352 6.60652 0.260733L11.7506 5.40208C11.9103 5.56263 11.9999 5.77981 11.9999 6.00619C11.9999 6.23257 11.9103 6.44975 11.7506 6.6103L6.60652 11.7516C6.44683 11.91 6.2313 11.9992 6.00638 12.0001Z" fill="#0C5ADB"/>
<path d="M0.862337 12C0.692046 12.001 0.525318 11.9513 0.383409 11.8572C0.241501 11.7631 0.130842 11.6289 0.0655401 11.4717C0.000238442 11.3145 -0.016747 11.1414 0.0167494 10.9746C0.0502458 10.8077 0.132706 10.6546 0.253618 10.5347L4.79758 6.00175L0.253618 1.46879C0.0921755 1.30743 0.00147809 1.08859 0.0014781 0.860398C0.0014781 0.632206 0.0921755 0.41336 0.253618 0.252005C0.41506 0.0906488 0.634023 1.70016e-09 0.862337 0C1.09065 -1.70016e-09 1.30961 0.0906488 1.47106 0.252005L6.61516 5.39335C6.77484 5.5539 6.86447 5.77108 6.86447 5.99746C6.86447 6.22384 6.77484 6.44102 6.61516 6.60157L1.47106 11.7429C1.39165 11.8239 1.29696 11.8883 1.19247 11.9324C1.08798 11.9766 0.97577 11.9995 0.862337 12Z" fill="#0C5ADB"/>
</svg>
