<svg width="16" height="18" viewBox="0 0 16 18" fill="none" xmlns="http://www.w3.org/2000/svg">
<path d="M8.00098 0.650391C10.1912 0.650391 11.9922 2.45692 11.9922 4.67383C11.9921 6.89068 10.1912 8.69727 8.00098 8.69727C5.81093 8.69711 4.01081 6.89059 4.01074 4.67383C4.01074 2.45701 5.81086 0.650541 8.00098 0.650391Z" stroke="#0C5ADB" stroke-width="1.3"/>
<path d="M4.62402 10.3311C4.61944 10.332 4.62674 10.3302 4.64551 10.335C4.66439 10.3397 4.68134 10.3479 4.69141 10.3555L4.69531 10.3584C5.6611 11.0763 6.81077 11.4462 8.00098 11.4463C9.19128 11.4463 10.3418 11.0763 11.3076 10.3584L11.3115 10.3555C11.3065 10.3593 11.3138 10.352 11.3418 10.3457C11.3674 10.3399 11.3998 10.3373 11.4336 10.3398C12.8584 10.5417 14.13 11.3523 14.96 12.5879L14.9639 12.5928C15.0988 12.7891 15.2153 12.9922 15.3086 13.2002C15.1719 13.4348 15.0178 13.6599 14.8408 13.8916L14.833 13.9023C14.5781 14.2507 14.2813 14.571 13.9648 14.8896C13.7017 15.1546 13.4004 15.4195 13.1025 15.6445C11.6157 16.7628 9.82808 17.3505 7.98145 17.3506C6.13624 17.3506 4.34951 16.764 2.86328 15.6475C2.54065 15.3835 2.24955 15.1429 1.99805 14.8896L1.99023 14.8828L1.9834 14.876L1.75391 14.6484C1.5303 14.4163 1.32501 14.1704 1.12891 13.9023L1.125 13.8984L0.860352 13.5283C0.795593 13.4332 0.734858 13.3363 0.677734 13.2412C0.778728 13.0187 0.903106 12.7891 1.03809 12.5928L1.03906 12.5938L1.0459 12.582C1.85519 11.3504 3.14903 10.5367 4.58398 10.3379L4.60449 10.335L4.62402 10.3311Z" stroke="#0C5ADB" stroke-width="1.3"/>
</svg>
