<svg width="80" height="80" viewBox="0 0 80 80" fill="none" xmlns="http://www.w3.org/2000/svg">
<rect x="0.5" y="0.5" width="79" height="79" rx="9.5" stroke="#0C5ADB"/>
<path opacity="0.898" d="M43.5264 15.5381C43.803 15.6206 44.0693 15.7351 44.3242 15.8867L44.3311 15.8916C47.3678 17.6277 50.4292 19.3254 53.5127 20.9883C53.5409 24.4049 53.568 27.8216 53.5928 31.2383L53.6641 41.7812C53.6792 44.5503 53.6286 47.3146 53.5137 50.0742C53.2122 51.0487 52.6337 51.7935 51.7617 52.3271C44.6823 56.4288 37.5725 60.4769 30.4336 64.4736C30.2766 64.5053 30.1228 64.5052 29.9658 64.4727C28.6622 63.7723 27.3712 63.0461 26.0928 62.2939C25.8687 62.1334 25.7267 61.9324 25.6543 61.6758C25.5816 53.7895 25.5318 45.9032 25.5029 38.0166C25.4874 34.3383 25.5369 30.6642 25.6523 26.9951C25.9781 26.1524 26.4971 25.4625 27.2188 24.918C32.677 21.8137 38.113 18.6871 43.5264 15.5381ZM47.2402 18.5518C47.2231 20.2526 47.2408 21.9532 47.292 23.6533L47.3086 24.2295C47.2559 24.1698 47.1941 24.0512 47.1699 23.8086C47.1845 22.038 47.0988 20.3027 46.9121 18.6035L46.8271 17.833L46.1602 18.2285C41.1389 21.2055 36.0774 24.1338 30.9766 27.0137L30.9531 27.0273L30.9307 27.043C30.1104 27.6327 29.5518 28.4204 29.2646 29.3906L29.2441 29.458V29.5293C29.1687 40.881 29.2022 52.2328 29.3457 63.584L29.3477 63.6914L29.3926 63.7891C29.4953 64.0091 29.6656 64.2189 29.9326 64.3213C30.1952 64.4219 30.4608 64.3838 30.6846 64.2998L30.7236 64.2852L30.7588 64.2637C37.7084 60.2414 44.6752 56.2454 51.6582 52.2744L51.6709 52.2666L51.6826 52.2588C52.4468 51.764 53.0061 51.0914 53.3516 50.251L53.3867 50.166L53.3896 50.0742C53.4781 46.6823 53.5288 43.2877 53.542 39.8906V36.4922C53.5555 31.6599 53.5053 26.829 53.3896 22L53.3691 21.1592L52.6396 21.5791C51.0309 22.5055 49.4138 23.4187 47.7891 24.3203C47.7083 24.3304 47.6415 24.3329 47.585 24.3301L48.0391 24.0723C49.5623 23.2029 51.0774 22.3208 52.584 21.4258L53.333 20.9805L52.5713 20.5586C51.0503 19.7157 49.5158 18.8998 47.9678 18.1113L47.248 17.7451L47.2402 18.5518ZM43.2051 15.7881C37.9278 18.8758 32.6273 21.9406 27.3037 24.9824L27.2754 24.999L27.249 25.0195C26.599 25.5155 26.1184 26.1471 25.8135 26.9072L25.7793 26.9912L25.7773 27.0811C25.6593 31.6709 25.608 36.2654 25.624 40.8643L25.6348 46.0361C25.6545 51.2082 25.7021 56.3801 25.7773 61.5518L25.7793 61.6777L25.8408 61.7881C25.9713 62.0221 26.1573 62.2081 26.3916 62.3379L26.4072 62.3457C27.0774 62.6878 27.7228 63.0676 28.3438 63.4844L29.1152 64.002L29.1221 63.0732C29.1913 53.6901 29.1745 44.3067 29.0713 34.9238C29.0798 34.0431 29.0882 33.162 29.0967 32.2812C29.1051 31.4124 29.1137 30.5436 29.1221 29.6748C29.2978 28.583 29.8143 27.7179 30.6826 27.0547C35.9085 24.112 41.1013 21.1183 46.2607 18.0732L46.9365 17.6738L46.29 17.2305C45.4546 16.6572 44.5779 16.1669 43.6602 15.7617L43.4258 15.6592L43.2051 15.7881ZM36.8486 51.1006C36.8865 51.4371 36.9156 51.7803 36.9297 52.1309L36.9424 52.7539C36.9339 53.1654 36.9254 53.5768 36.917 53.9883C36.9104 54.312 36.9031 54.6362 36.8965 54.96C35.7828 55.6501 34.6535 56.3163 33.5088 56.959C33.4421 55.6738 33.4371 54.3881 33.4941 53.1016C34.6321 52.4568 35.7502 51.7898 36.8486 51.1006ZM36.8945 40.3408C36.9651 41.6423 36.9534 42.9539 36.8594 44.2764C35.7388 44.9457 34.6123 45.606 33.4814 46.2598C33.4462 44.9485 33.4511 43.6374 33.498 42.3262C34.6407 41.6729 35.7729 41.0111 36.8945 40.3408ZM36.8467 29.6406C36.8856 29.9824 36.9154 30.3311 36.9297 30.6875L36.9424 31.3115C36.9339 31.7229 36.9254 32.1345 36.917 32.5459C36.9104 32.8669 36.9031 33.1878 36.8965 33.5088C36.247 33.8852 35.5978 34.2623 34.9482 34.6387C34.4568 34.9234 33.965 35.2074 33.4736 35.4922C33.4338 34.1817 33.4555 32.8718 33.5391 31.5625C34.6561 30.9364 35.7584 30.2954 36.8467 29.6406Z" stroke="#0C5ADB"/>
<path opacity="0.874" d="M45.5981 25.5437C45.5983 25.5522 45.5986 25.5615 45.5981 25.572C44.0841 26.5355 42.5328 27.4422 40.9438 28.2917C40.8863 28.3028 40.8415 28.3087 40.8071 28.3103C40.808 28.2929 40.81 28.2729 40.813 28.2498C40.8449 28.2179 40.8767 28.1859 40.9087 28.1541C42.4449 27.306 43.9603 26.4376 45.4536 25.5466C45.5183 25.5406 45.5653 25.5403 45.5981 25.5437Z" stroke="#0C5ADB"/>
<path opacity="0.92" d="M37.9172 27.7949C37.9745 29.9073 37.9738 32.0195 37.9163 34.1318C36.1638 35.2497 34.3662 36.2915 32.5237 37.2588C32.4585 35.2714 32.3956 33.2792 32.3352 31.2822C32.3461 31.1817 32.366 31.0839 32.3958 30.9883C34.1955 29.9067 35.9967 28.8386 37.8 27.7852C37.8425 27.7838 37.8811 27.7864 37.9172 27.7949ZM36.9778 28.3945C35.6133 29.227 34.2255 30.0364 32.8147 30.8232L32.5784 30.9551L32.5588 31.2256C32.4386 32.9381 32.4212 34.6516 32.5071 36.3662L32.5481 37.1846L33.2571 36.7744C34.7188 35.9274 36.1801 35.0804 37.6418 34.2334L37.885 34.0928L37.8909 33.8115C37.908 32.9774 37.9245 32.1553 37.9417 31.3213H37.9426V31.3105C37.9424 30.418 37.8715 29.5601 37.7307 28.7373L37.6067 28.0107L36.9778 28.3945Z" stroke="#0C5ADB"/>
<path opacity="0.876" d="M45.5984 28.9995C45.5985 29.0061 45.5986 29.0132 45.5984 29.021C44.0403 29.9633 42.459 30.8695 40.8542 31.7397C40.8324 31.742 40.8134 31.745 40.7966 31.7456C40.8 31.7209 40.808 31.6917 40.8162 31.6567C42.3832 30.7934 43.9287 29.9087 45.4529 29.0024C45.5181 28.9963 45.5654 28.9961 45.5984 28.9995Z" stroke="#0C5ADB"/>
<path opacity="0.874" d="M50.1836 33.9136C50.2402 33.9237 50.2839 33.9356 50.3174 33.9468C50.302 33.9825 50.2778 34.028 50.2412 34.0854C47.1051 35.8599 43.9575 37.6092 40.7979 39.3325C40.7978 39.3251 40.7965 39.317 40.7969 39.3081L40.7979 39.2837L40.7959 39.2593C40.7953 39.2492 40.7955 39.2419 40.7959 39.2378C43.9471 37.485 47.0764 35.7103 50.1836 33.9136Z" stroke="#0C5ADB"/>
<path opacity="0.921" d="M37.9163 38.5076C37.9751 40.6372 37.9751 42.7666 37.9172 44.8962C36.1542 45.9713 34.3689 47.0123 32.5608 48.0183C32.5315 48.0261 32.5063 48.0298 32.4827 48.03C32.46 46.0127 32.4121 43.9967 32.3352 41.9822C32.3378 41.9063 32.3511 41.8358 32.3762 41.7683C34.1921 40.6194 36.0369 39.5316 37.9104 38.5046C37.9123 38.5056 37.9143 38.5065 37.9163 38.5076ZM37.0823 39.0642C35.6587 39.9228 34.2172 40.7674 32.759 41.5984L32.5188 41.7351L32.5071 42.0125C32.4385 43.7195 32.4385 45.4265 32.5071 47.1335L32.5403 47.9578L33.2561 47.5476C34.7114 46.7121 36.1584 45.8638 37.5969 45.0027L37.8186 44.8699L37.8391 44.613C37.9765 42.8768 37.9756 41.1562 37.8381 39.4519L37.7737 38.6462L37.0823 39.0642Z" stroke="#0C5ADB"/>
<path opacity="0.876" d="M46.0569 39.7788C46.0492 39.8117 46.0367 39.8521 46.0178 39.9019C44.3173 40.8472 42.6678 41.7645 40.9661 42.7104C40.9178 42.7146 40.8765 42.7191 40.8411 42.7192C40.8505 42.6971 40.8639 42.6738 40.8772 42.647C42.5513 41.7034 44.2101 40.7478 45.8528 39.7788C45.9416 39.7724 46.0082 39.7737 46.0569 39.7788Z" stroke="#0C5ADB"/>
<path opacity="0.878" d="M50.2078 44.0615C50.2651 44.0656 50.3063 44.0723 50.3347 44.0801C50.3334 44.0951 50.3314 44.1135 50.3269 44.1357C47.3855 45.8252 44.4366 47.5032 41.4792 49.168L41.4617 49.1777C41.2665 49.2983 41.0607 49.3834 40.8435 49.4375C43.9633 47.6314 47.0844 45.8388 50.2078 44.0615Z" stroke="#0C5ADB"/>
<path opacity="0.919" d="M37.9172 49.2468C37.9743 51.3855 37.9745 53.5241 37.9172 55.6628C36.1231 56.6946 34.336 57.737 32.5569 58.7917C32.5292 58.7989 32.5052 58.8022 32.4827 58.8025C32.4606 56.7746 32.4123 54.7482 32.3352 52.7234C32.346 52.6249 32.3658 52.5291 32.3948 52.4353C34.2374 51.3795 36.0672 50.3152 37.8831 49.241C37.8947 49.2424 37.906 49.2445 37.9172 49.2468ZM36.969 49.8435C35.5986 50.7209 34.196 51.5624 32.762 52.3689L32.5217 52.5046L32.5071 52.78C32.4211 54.4611 32.4385 56.1412 32.5588 57.8201L32.6145 58.5994L33.2991 58.2224C34.7764 57.4097 36.2287 56.5588 37.6555 55.6687L37.886 55.5251L37.8909 55.2546C37.908 54.4205 37.9245 53.5984 37.9417 52.7644H37.9426V52.7546C37.9424 51.862 37.8715 51.0034 37.7307 50.1804L37.6038 49.4363L36.969 49.8435Z" stroke="#0C5ADB"/>
<path opacity="0.873" d="M46.0122 49.8625C46.0491 49.8698 46.0704 49.8784 46.0815 49.884C46.0841 49.8931 46.0868 49.9093 46.0874 49.9358C46.0612 49.962 46.0345 49.9878 46.0083 50.0139C45.1609 50.4942 44.3137 50.975 43.4663 51.4553C42.6242 51.9326 41.782 52.4097 40.9399 52.887C40.8869 52.897 40.8449 52.9028 40.812 52.9045C42.5291 51.8546 44.2623 50.8403 46.0122 49.8625Z" stroke="#0C5ADB"/>
</svg>
