<svg width="80" height="80" viewBox="0 0 80 80" fill="none" xmlns="http://www.w3.org/2000/svg">
<rect x="0.5" y="0.5" width="79" height="79" rx="9.5" stroke="#0C5ADB"/>
<path opacity="0.927" fill-rule="evenodd" clip-rule="evenodd" d="M39.0641 15.0414C40.2329 14.9075 41.342 15.0983 42.3916 15.6139C49.2716 20.0118 56.1693 24.3836 63.0844 28.7294C64.7552 30.104 65.3271 31.8563 64.8002 33.986C64.4823 34.9171 63.9451 35.6978 63.1884 36.3281C62.4575 36.8585 61.6776 37.2922 60.8488 37.6292C60.0533 37.4092 59.8281 36.9234 60.1729 36.1719C60.7958 35.6864 61.4544 35.2528 62.1486 34.8708C63.0618 34.0442 63.391 33.0207 63.1364 31.8001C62.9037 31.0119 62.4358 30.4048 61.7326 29.9785C55.0255 25.7715 48.3358 21.5385 41.6637 17.2794C40.5545 16.6549 39.4454 16.6549 38.3363 17.2794C31.5079 21.6165 24.6797 25.9536 17.8514 30.2908C16.8249 31.2193 16.5302 32.3469 16.9676 33.6737C17.1734 34.1376 17.468 34.5367 17.8514 34.8708C24.8183 39.2773 31.7853 43.6839 38.7522 48.0904C39.5841 48.4373 40.4159 48.4373 41.2478 48.0904C44.2633 46.1821 47.2789 44.2736 50.2944 42.3653C51.5568 42.311 51.8687 42.8315 51.2303 43.9267C48.2147 45.835 45.1992 47.7434 42.1837 49.6517C40.5019 50.3582 38.8728 50.2541 37.2964 49.3394C30.4681 45.0023 23.6399 40.6652 16.8116 36.3281C15.0309 34.7318 14.5629 32.8061 15.4078 30.551C15.7989 29.8476 16.3015 29.2404 16.9156 28.7294C23.8307 24.3836 30.7284 20.0118 37.6084 15.6139C38.0928 15.3893 38.578 15.1985 39.0641 15.0414Z" fill="#0C5ADB"/>
<path opacity="0.927" fill-rule="evenodd" clip-rule="evenodd" d="M39.1681 29.9262C40.355 29.7856 41.4642 30.0112 42.4956 30.6028C49.4107 34.9486 56.3084 39.3205 63.1884 43.7183C64.9691 45.3145 65.437 47.2402 64.5922 49.4954C64.201 50.1988 63.6984 50.806 63.0844 51.317C56.1175 55.7234 49.1505 60.13 42.1836 64.5365C40.6427 65.1872 39.1175 65.1524 37.6083 64.4324C30.7283 60.0346 23.8307 55.6628 16.9155 51.317C15.2447 49.9423 14.6728 48.1901 15.1998 46.0604C15.6754 44.7514 16.5246 43.7626 17.7474 43.0938C18.6983 42.867 19.1316 43.2313 19.0472 44.1867C18.9656 44.3726 18.8443 44.5288 18.6833 44.6551C16.7683 45.7214 16.3004 47.2308 17.2795 49.1831C17.5048 49.4087 17.7301 49.6341 17.9554 49.8597C24.749 54.1621 31.5426 58.4646 38.3362 62.767C39.4454 63.3915 40.5545 63.3915 41.6637 62.767C48.3357 58.5079 55.0254 54.2749 61.7326 50.0679C63.2406 49.0081 63.6045 47.6377 62.8244 45.9563C62.638 45.6653 62.4126 45.4051 62.1485 45.1756C55.1816 40.7691 48.2147 36.3625 41.2478 31.956C40.4159 31.6091 39.584 31.6091 38.7522 31.956C36.2736 33.4914 33.8127 35.0527 31.3693 36.6401C30.5253 37.1464 29.9707 36.9382 29.7056 36.0156C29.7362 35.7113 29.8749 35.4684 30.1215 35.2869C32.5307 33.7863 34.9223 32.2596 37.2964 30.7069C37.8964 30.3535 38.5203 30.0933 39.1681 29.9262Z" fill="#0C5ADB"/>
</svg>
