<svg width="80" height="80" viewBox="0 0 80 80" fill="none" xmlns="http://www.w3.org/2000/svg">
<rect x="0.5" y="0.5" width="79" height="79" rx="9.5" stroke="#0C5ADB"/>
<path opacity="0.866" fill-rule="evenodd" clip-rule="evenodd" d="M38.5332 15C39.2071 15 39.8808 15 40.5547 15C43.3952 15.7505 44.9187 17.5627 45.125 20.4366C44.8823 23.5984 43.1538 25.4391 39.9395 25.9589C39.8516 27.4419 39.8223 28.9259 39.8516 30.411C40.6141 30.5871 41.3758 30.7726 42.1367 30.9675C43.0199 30.979 43.8988 31.0361 44.7734 31.1387C45.4175 31.3104 45.9742 31.6243 46.4434 32.0805C47.6004 32.3693 48.743 32.6975 49.8711 33.0651C50.4102 32.7538 50.9376 32.4256 51.4531 32.0805C50.1092 29.0979 50.783 26.6436 53.4746 24.7175C56.1838 23.4168 58.6008 23.8021 60.7256 25.8733C61.3618 26.636 61.7866 27.4921 62 28.4418C62 29.1267 62 29.8116 62 30.4966C61.2086 33.264 59.3337 34.748 56.375 34.9486C54.4995 34.8985 52.9908 34.1565 51.8486 32.7226C51.3506 33.0366 50.8526 33.3504 50.3545 33.6644C50.3252 34.6633 50.2959 35.6621 50.2666 36.661C50.1037 37.0914 49.7961 37.3482 49.3438 37.4315C49.3584 39.6862 49.3438 41.9408 49.2998 44.1952C49.2116 44.9378 48.7867 45.3801 48.0254 45.5223C49.168 46.3071 50.3105 47.0919 51.4531 47.8767C53.0556 46.1818 55.0186 45.5967 57.3418 46.1216C60.5277 47.3197 61.8313 49.5599 61.2529 52.8425C60.3627 55.3961 58.5317 56.7659 55.7598 56.9521C52.8486 56.7271 51.0175 55.2431 50.2666 52.5C50.0018 51.0803 50.2509 49.7533 51.0137 48.5188C49.7091 47.6408 48.42 46.7419 47.1465 45.8219C44.7442 46.7066 42.3418 47.5914 39.9395 48.476C39.8516 50.3301 39.8223 52.1852 39.8516 54.0411C42.7349 54.4098 44.478 55.9794 45.0811 58.75C45.2612 62.0561 43.7231 64.1394 40.4668 65C39.8223 65 39.1777 65 38.5332 65C35.2772 64.1405 33.7391 62.0571 33.9189 58.75C34.5196 55.9818 36.2628 54.4122 39.1484 54.0411C39.1631 52.2715 39.1484 50.5021 39.1045 48.7329C38.8049 48.8289 38.4973 48.8432 38.1816 48.7757C35.3488 48.068 32.5217 47.3402 29.7002 46.5925C28.9616 47.0022 28.2438 47.4445 27.5469 47.9195C28.7799 50.5587 28.3112 52.8704 26.1406 54.8545C24.0939 56.2241 21.9552 56.3669 19.7246 55.2825C18.2402 54.3648 17.332 53.0663 17 51.387C17 50.8162 17 50.2455 17 49.6747C17.7088 46.8304 19.5692 45.2893 22.5811 45.0514C24.4753 45.0893 25.9988 45.8313 27.1514 47.2774C27.7151 46.8958 28.2864 46.5247 28.8652 46.1644C28.7678 46.003 28.6945 45.8318 28.6455 45.6507C28.6016 43.3392 28.5869 41.0276 28.6016 38.7158C28.0533 38.6241 27.7163 38.3102 27.5908 37.774C27.5322 36.8893 27.5322 36.0045 27.5908 35.1199C27.6654 34.8461 27.7972 34.6035 27.9863 34.3921C28.5302 34.1417 29.0868 33.9134 29.6562 33.7072C29.7734 33.6501 29.7734 33.5931 29.6562 33.536C28.9411 33.0818 28.238 32.6109 27.5469 32.1233C25.7639 33.9694 23.6252 34.4974 21.1309 33.7072C18.4703 32.4764 17.313 30.4358 17.6592 27.5856C18.3709 24.7696 20.2166 23.2856 23.1963 23.1336C25.6292 23.2222 27.3577 24.3353 28.3818 26.4726C29.0156 28.2036 28.8838 29.8731 27.9863 31.4812C28.8515 32.0595 29.7011 32.6588 30.5352 33.2791C30.6523 33.3362 30.7696 33.3362 30.8867 33.2791C33.6269 32.2515 36.3808 31.2669 39.1484 30.3253C39.1777 28.8688 39.1483 27.4133 39.0605 25.9589C35.8467 25.4396 34.1182 23.5989 33.875 20.4366C34.077 17.5135 35.6297 15.7013 38.5332 15ZM38.8848 15.6849C41.7076 15.6245 43.5094 16.9088 44.29 19.5377C44.5965 22.5235 43.2636 24.3928 40.291 25.1455C37.411 25.3351 35.5507 24.0937 34.71 21.4212C34.4164 18.3388 35.8081 16.4267 38.8848 15.6849ZM22.5371 23.8185C25.4293 23.7405 27.2604 25.0533 28.0303 27.7568C28.2397 30.6628 26.9067 32.5036 24.0312 33.2791C21.1009 33.4731 19.2406 32.2031 18.4502 29.4692C18.1888 26.4673 19.5511 24.5837 22.5371 23.8185ZM55.8477 24.6747C58.1834 24.5996 59.868 25.5699 60.9014 27.5856C61.8244 30.4262 60.9308 32.5238 58.2207 33.8784C55.7911 34.6211 53.8136 34.0074 52.2881 32.0377C51.0316 29.7404 51.3392 27.6713 53.2109 25.8305C53.9998 25.2319 54.8787 24.8467 55.8477 24.6747ZM39.1484 31.0103C39.7748 31.1233 40.3901 31.2802 40.9941 31.4812C37.7129 32.6798 34.4316 33.8784 31.1504 35.0771C30.5059 35.0557 29.8907 34.9129 29.3047 34.649C32.6034 33.4551 35.8846 32.2422 39.1484 31.0103ZM42.4883 31.6952C43.4765 31.591 44.4141 31.748 45.3008 32.1661C41.9244 33.4677 38.5259 34.7235 35.1055 35.9332C34.6866 36.1412 34.4375 36.4694 34.3584 36.9178C34.3291 38.573 34.2998 40.2283 34.2705 41.8836C34.2342 42.1175 34.1756 42.3458 34.0947 42.5685C33.6671 42.0512 33.3303 41.4805 33.084 40.8562C33.2936 40.5444 33.2936 40.2448 33.084 39.9572C32.8905 39.8866 32.7294 39.9294 32.6006 40.0856C32.3431 40.7315 31.9769 41.3023 31.502 41.7979C31.4318 41.6628 31.3879 41.5202 31.3701 41.3699C31.3115 39.5719 31.3115 37.774 31.3701 35.976C31.403 35.8976 31.4469 35.8262 31.502 35.762C35.1694 34.3955 38.8314 33.04 42.4883 31.6952ZM46.0039 32.7226C46.9067 32.9728 47.8149 33.2153 48.7285 33.4503C45.4248 34.6658 42.1142 35.8645 38.7969 37.0462C38.6504 37.1033 38.5039 37.1033 38.3574 37.0462C37.5664 36.8465 36.7754 36.6467 35.9844 36.4469C39.3363 35.2115 42.6762 33.97 46.0039 32.7226ZM49.4316 33.9212C49.5483 34.3023 49.6069 34.7161 49.6074 35.1627C49.5927 35.5765 49.5782 35.9903 49.5635 36.4041C49.5306 36.4825 49.4867 36.5539 49.4316 36.6182C45.8272 37.9789 42.209 39.3059 38.5771 40.5993C37.4321 40.2848 36.2895 39.9709 35.1494 39.6575C35.1055 38.7733 35.0909 37.8886 35.1055 37.0034C36.2633 37.2818 37.4205 37.5672 38.5771 37.8596C42.2322 36.6207 45.8504 35.308 49.4316 33.9212ZM28.3379 35.2055C29.0639 35.4181 29.7963 35.6178 30.5352 35.8048C30.6376 36.7167 30.6522 37.63 30.5791 38.5445C29.9275 38.3426 29.2683 38.157 28.6016 37.988C28.5283 37.9167 28.455 37.8453 28.3818 37.774C28.3379 36.9183 28.3233 36.0622 28.3379 35.2055ZM48.377 37.774C48.4941 38.8426 48.5526 39.9414 48.5527 41.0702C48.5381 42.1689 48.5235 43.2677 48.5088 44.3664C48.4648 44.5234 48.3623 44.6233 48.2012 44.6661C45.0175 45.8473 41.8242 47.0032 38.6211 48.1336C35.6914 47.3773 32.7617 46.621 29.832 45.8647C29.657 45.8156 29.5251 45.7157 29.4365 45.5651C29.3633 43.367 29.378 41.1695 29.4805 38.9726C29.855 39.0672 30.2211 39.1814 30.5791 39.3151C30.5465 40.1199 30.5758 40.919 30.667 41.7123C30.7801 42.5965 31.2342 42.8391 32.0293 42.4401C32.2198 42.1975 32.4101 41.9549 32.6006 41.7123C32.8645 42.2833 33.2307 42.7827 33.6992 43.2106C34.0946 43.4133 34.4315 43.3419 34.71 42.9966C35.014 42.1694 35.1605 41.3133 35.1494 40.4281C36.1519 40.7187 37.1626 40.9897 38.1816 41.2414C38.2544 43.133 38.2984 45.0309 38.3135 46.9349C38.5909 47.1831 38.8252 47.1545 39.0166 46.8493C39.0313 44.9651 39.0752 43.0815 39.1484 41.1986C42.247 40.0883 45.3232 38.9467 48.377 37.774ZM22.4492 45.7363C25.1052 45.9125 26.7605 47.2538 27.415 49.7603C27.669 52.1641 26.6875 53.8907 24.4707 54.9401C21.6251 55.8049 19.5011 54.963 18.0986 52.4144C17.2445 49.9449 17.9037 47.9614 20.0762 46.464C20.8259 46.0539 21.6169 45.8113 22.4492 45.7363ZM54.9688 46.6781C57.1364 46.4712 58.821 47.2418 60.0225 48.9897C61.2432 51.4925 60.7598 53.6187 58.5723 55.3682C56.1486 56.7002 53.966 56.4005 52.0244 54.4692C50.9535 53.1055 50.6605 51.5929 51.1455 49.9315C51.8387 48.1853 53.1131 47.1008 54.9688 46.6781ZM38.709 54.8116C41.5869 54.6633 43.4472 55.919 44.29 58.5788C44.6204 61.4027 43.4045 63.272 40.6426 64.1866C37.7874 64.5997 35.8391 63.5009 34.7979 60.8904C34.2742 58.6527 34.9626 56.869 36.8633 55.5394C37.448 55.2026 38.0633 54.96 38.709 54.8116Z" fill="#0C5ADB"/>
</svg>
