<svg width="36" height="40" viewBox="0 0 36 40" fill="none" xmlns="http://www.w3.org/2000/svg">
<path d="M35.3929 38.7879H28.8564V36.2667C28.8564 34.8121 27.6546 33.6242 26.1829 33.6242H24.5396C30.3648 28.0364 29.6536 20.3879 25.8947 13.0303C23.2029 8.36366 20.002 5.48488 20.002 0.606095C20.002 0.393974 19.8855 0.193974 19.7016 0.0848834C19.6102 0.030395 19.5056 0.00109593 19.3989 3.01512e-05C19.2921 -0.00103562 19.187 0.0261709 19.0945 0.0788229C11.0925 4.47276 6.46909 11.0728 6.07665 18.6667C5.78845 24.2727 7.99591 30.2 11.7118 33.6242H9.81707C8.34543 33.6242 7.14359 34.8061 7.14359 36.2667V38.7879H0.613184C0.275933 38.7879 0 39.0606 0 39.3939C0 39.7273 0.275933 40 0.613184 40H35.3868C35.7241 40 36 39.7273 36 39.3939C36 39.0606 35.7302 38.7879 35.3929 38.7879ZM24.5887 13.2061L9.29586 28.3152C8.70107 27.1152 8.22279 25.8121 7.87941 24.4606L22.4977 10.0121C22.5529 10.0909 22.6019 10.1637 22.651 10.2424C23.3071 11.2 23.9632 12.1697 24.5887 13.2061ZM7.30301 18.7273C7.65866 11.8424 11.7363 5.80609 18.8186 1.63034C19.0639 4.49094 20.3332 6.73942 21.8109 8.98184L7.57895 23.0485C7.32754 21.6303 7.22943 20.1758 7.30301 18.7273ZM9.90904 29.4303L25.2141 14.3031C29.7149 22.6061 27.4032 30.3758 22.6633 33.6242H13.6188C12.1717 32.5879 10.9147 31.1333 9.90904 29.4303ZM8.37609 38.7879V36.2667C8.37609 35.4788 9.02606 34.8364 9.8232 34.8364H26.1891C26.9862 34.8364 27.6362 35.4788 27.6362 36.2667V38.7879H8.37609Z" fill="white"/>
</svg>
