<svg width="80" height="80" viewBox="0 0 80 80" fill="none" xmlns="http://www.w3.org/2000/svg">
<rect x="0.5" y="0.5" width="79" height="79" rx="9.5" stroke="#0C5ADB"/>
<path opacity="0.952" fill-rule="evenodd" clip-rule="evenodd" d="M35.8498 15.046C37.8836 14.7944 39.3345 15.5744 40.2023 17.3861C40.3309 20.0171 40.4251 22.6542 40.4849 25.2976C46.0267 27.0643 49.2865 30.7786 50.264 36.4407C50.3017 39.8208 50.3395 43.2009 50.3771 46.5809C50.47 47.8387 50.8092 49.0273 51.3946 50.1467C53.1379 49.0452 55.041 48.6552 57.1038 48.9767C61.3702 49.9695 63.669 52.6253 64 56.944C63.7073 60.9972 61.5971 63.6158 57.669 64.7998C53.9363 65.4943 50.9782 64.3243 48.7944 61.2898C48.5185 60.7831 48.2735 60.2632 48.0595 59.7297C46.6295 59.6184 45.1975 59.5813 43.7635 59.6183C43.1065 62.142 41.5238 63.832 39.0153 64.6884C35.5148 65.5685 32.7072 64.5842 30.5928 61.7355C30.1826 61.0762 29.9 60.3705 29.7449 59.6183C25.7125 59.6369 21.6803 59.6183 17.6482 59.5626C15.532 58.8284 14.6841 57.3612 15.1045 55.1611C15.3798 54.3013 15.8886 53.6141 16.6307 53.0996C17.8927 52.705 19.1362 52.2593 20.3615 51.7624C21.9827 50.7414 22.8682 49.2743 23.0182 47.3609C23.152 43.7224 23.2274 40.0824 23.2443 36.4407C24.2188 30.7814 27.4784 27.0671 33.0234 25.2976C33.1176 22.7727 33.1741 20.2469 33.193 17.7204C33.5716 16.3258 34.4572 15.4344 35.8498 15.046ZM36.1889 16.9403C37.2162 16.7687 37.9511 17.1401 38.3935 18.0547C38.5751 20.3528 38.6129 22.6557 38.5065 24.9634C37.3383 24.8148 36.17 24.8148 35.0019 24.9634C34.9265 22.8462 34.9265 20.729 35.0019 18.6118C35.0726 17.8196 35.4683 17.2624 36.1889 16.9403ZM36.6411 26.6348C42.7687 27.0484 46.6313 30.1685 48.2291 35.995C48.3472 36.7332 48.4225 37.4761 48.4552 38.2236C48.4928 41.3066 48.5306 44.3894 48.5682 47.4724C48.6868 48.8631 49.1203 50.1446 49.8684 51.3167C48.1142 53.1418 47.3605 55.3147 47.6073 57.8354C37.9224 57.854 28.2375 57.8354 18.5526 57.7797C17.329 57.5398 16.8202 56.8155 17.0264 55.6068C17.143 55.2682 17.3503 54.9896 17.6482 54.7711C18.6267 54.437 19.6065 54.1027 20.5876 53.7682C23.2826 52.5275 24.7335 50.4288 24.9401 47.4724C24.9543 43.9419 25.0297 40.4132 25.1662 36.8864C25.8048 33.0288 27.8209 30.113 31.2146 28.1391C32.9297 27.2527 34.7386 26.7513 36.6411 26.6348ZM55.7471 50.7039C59.5739 51.0956 61.6466 53.1756 61.965 56.944C61.8848 59.5289 60.6788 61.4047 58.3473 62.5712C54.7123 63.7776 51.9425 62.7561 50.0379 59.5069C48.814 55.924 49.8504 53.194 53.1469 51.3167C53.9957 50.9754 54.8624 50.771 55.7471 50.7039ZM31.7799 59.6183C35.096 59.6183 38.4123 59.6183 41.7285 59.6183C40.5002 62.4154 38.3522 63.5111 35.2845 62.9055C33.5781 62.3563 32.4099 61.2606 31.7799 59.6183Z" fill="#0C5ADB"/>
<path fill-rule="evenodd" clip-rule="evenodd" d="M54.8428 52.4868C55.4457 52.4868 56.0487 52.4868 56.6516 52.4868C56.6516 53.6754 56.6516 54.864 56.6516 56.0526C57.8576 56.0526 59.0634 56.0526 60.2693 56.0526C60.2693 56.6469 60.2693 57.2412 60.2693 57.8355C59.0634 57.8355 57.8576 57.8355 56.6516 57.8355C56.6516 59.0241 56.6516 60.2126 56.6516 61.4013C56.0487 61.4013 55.4457 61.4013 54.8428 61.4013C54.8428 60.2126 54.8428 59.0241 54.8428 57.8355C53.6369 57.8355 52.431 57.8355 51.2251 57.8355C51.2251 57.2412 51.2251 56.6469 51.2251 56.0526C52.431 56.0526 53.6369 56.0526 54.8428 56.0526C54.8428 54.864 54.8428 53.6754 54.8428 52.4868Z" fill="#0C5ADB"/>
</svg>
