<svg width="40" height="34" viewBox="0 0 40 34" fill="none" xmlns="http://www.w3.org/2000/svg">
<path d="M6.55835 26.0814C6.55835 25.7093 6.86481 25.4088 7.24423 25.4088C7.62365 25.4088 7.93011 25.7093 7.93011 26.0814C7.93011 27.5746 10.7629 28.4054 12.3853 27.2219C12.8017 26.9164 13.0566 26.5132 13.0566 26.0814C13.0566 24.8356 11.7158 24.6041 10.3749 24.371C8.46491 24.0393 6.55663 23.7077 6.55663 21.3332C6.55663 19.675 8.1533 18.558 9.80491 18.3316V17.3796C9.80491 17.0076 10.1139 16.7071 10.4934 16.7071C10.8702 16.7071 11.1792 17.0076 11.1792 17.3796V18.3316C12.8343 18.558 14.4301 19.675 14.4301 21.3332C14.4301 21.7052 14.1211 22.0057 13.7416 22.0057C13.3648 22.0057 13.0558 21.7052 13.0558 21.3332C13.0558 19.84 10.223 19.0092 8.60312 20.1952C8.18678 20.4982 7.92925 20.9014 7.92925 21.3332C7.92925 22.579 9.27011 22.8121 10.611 23.0436C12.521 23.3778 14.431 23.7094 14.431 26.0805C14.431 27.7412 12.8343 28.8582 11.1801 29.0821V30.0341C11.1801 30.4061 10.8711 30.7066 10.4942 30.7066C10.1148 30.7066 9.80577 30.4061 9.80577 30.0341V29.0821C8.15502 28.8582 6.55835 27.7421 6.55835 26.0814ZM10.4959 13.4168C12.078 13.4168 13.5794 13.7602 14.9245 14.3764H21.8546L21.8451 11.6702C21.8331 11.1004 22.4538 10.7923 22.9036 11.0785L31.547 16.5926C32.0097 16.8738 31.978 17.4899 31.5539 17.7424L22.9594 22.9055C22.4512 23.2347 21.8743 22.8651 21.8743 22.3567V19.6203H20.13C21.8503 23.5141 20.9429 28.019 17.9179 30.9844C13.818 35.0045 7.17212 35.0045 3.07487 30.9844C-1.02496 26.966 -1.02496 20.4502 3.07487 16.4302C4.97199 14.5691 7.5979 13.4168 10.4959 13.4168ZM17.1144 15.7214C18.0204 16.4431 18.7976 17.3076 19.4141 18.2794H22.5559C22.9328 18.2794 23.2401 18.5799 23.2401 18.9503L23.2452 21.1598L29.9152 17.154L23.2186 12.8806L23.2255 15.0497C23.2256 15.1379 23.208 15.2252 23.1736 15.3066C23.1393 15.388 23.0889 15.462 23.0254 15.5244C22.9618 15.5867 22.8863 15.6361 22.8033 15.6698C22.7202 15.7034 22.6312 15.7207 22.5413 15.7206V15.7231H17.1144V15.7214ZM16.947 17.3822C13.3845 13.889 7.6082 13.889 4.04575 17.3822C0.483292 20.8753 0.483292 26.5393 4.04575 30.0324C7.6082 33.5256 13.3845 33.5256 16.947 30.0324C20.5086 26.5393 20.5086 20.8753 16.947 17.3822ZM12.8077 10.1879L19.4776 6.18219L12.7811 1.91129L12.7879 4.07536C12.7886 4.1635 12.7714 4.2509 12.7375 4.33251C12.7035 4.41413 12.6534 4.48833 12.59 4.55086C12.5267 4.61338 12.4513 4.66299 12.3683 4.6968C12.2853 4.73062 12.1962 4.74799 12.1063 4.74789H4.85782V7.30841H12.1192C12.4961 7.30841 12.8034 7.60891 12.8034 7.98095L12.8077 10.1879ZM21.1172 6.77392L12.5227 11.9345C12.0145 12.2662 11.4376 11.8941 11.4376 11.3857V8.6518L4.17194 8.65433C3.79251 8.65433 3.48348 8.35131 3.48348 7.98179V4.07788H3.48606C3.48606 3.70837 3.79251 3.40703 4.17194 3.40703H11.4187L11.4093 0.699207C11.3973 0.12936 12.0179 -0.176185 12.4652 0.107476L21.1103 5.6216C21.5722 5.90274 21.5404 6.52056 21.1172 6.77392ZM31.3616 32.1275L38.0316 28.1217L31.335 23.8508L31.3427 26.0149C31.3453 26.3894 31.0337 26.6925 30.6586 26.6874V26.6899H23.4101V29.2454H30.6732C31.0672 29.2454 31.3762 29.556 31.3573 29.9777C31.3599 30.524 31.3625 31.0728 31.3625 31.6216V32.1275H31.3616ZM39.6712 28.7134L31.0766 33.874C30.5684 34.2057 29.9916 33.8336 29.9916 33.3252V30.593H22.7259V30.5905C22.636 30.5906 22.547 30.5733 22.4639 30.5396C22.3809 30.506 22.3054 30.4565 22.2419 30.3942C22.1783 30.3319 22.1279 30.2579 22.0936 30.1765C22.0592 30.095 22.0416 30.0077 22.0417 29.9196L22.0366 26.0166C22.0366 25.6445 22.3456 25.344 22.725 25.344H29.9718L29.9624 22.6387C29.9504 22.0689 30.571 21.7633 31.0208 22.047L39.6643 27.5611C40.1261 27.8422 40.0952 28.4601 39.6712 28.7134Z" fill="white"/>
</svg>
